<?xml version="1.0" encoding="utf-8"?>
<!-- Generator: Adobe Illustrator 22.1.0, SVG Export Plug-In . SVG Version: 6.00 Build 0)  -->
<svg version="1.1" id="Layer_1" xmlns="http://www.w3.org/2000/svg" xmlns:xlink="http://www.w3.org/1999/xlink" x="0px" y="0px"
	 viewBox="0 0 512 512" style="enable-background:new 0 0 512 512;" xml:space="preserve">
<style type="text/css">
	.st0{fill:#FFFFFF;}
	.st1{fill:#F6891F;}
</style>
<g>
	<path class="st0" d="M165,8.2c6.2,76.5,52,122.1,106,162.4c37.3,27.8,74.1,56.1,99.8,95.9c48.6,75.1,23.3,174-54.3,211.8
		c-0.8,0.4-1.9,0.3-3.5,0.5c4.1-13.9,9.7-27.3,12-41.2c8.6-50.8-1-97-40.1-133.1c-21-19.4-45.3-35.4-65.9-55.2
		c-24.3-23.3-49.8-46.7-68.7-74.2c-35-50.8-30.4-116.6,5.8-157.1C158.2,15.8,160.2,13.5,165,8.2z"/>
	<path class="st1" d="M265.7,505.2C287.4,438.7,262,389,212.9,348c-21.2-17.7-43.4-34.3-64.8-51.8c-39.9-32.6-44.8-74.6-31.2-121.7
		c10.7,53.1,46.7,86.7,87.4,117.3c18.7,14.1,36.7,29.4,53.4,45.8c30.1,29.5,43.2,65.7,38.3,108.1C293.3,469,282.8,490.6,265.7,505.2
		z"/>
	<path class="st1" d="M321.6,140.7c-27.7,0.2-50.1-21.8-50-49.1c0.1-27.8,21.5-49.6,49.4-50.2c27-0.6,49.8,22,50,49.5
		C371.1,118.4,349.4,140.4,321.6,140.7z"/>
</g>
</svg>
